<svg id="Layer_4" data-name="Layer 4" xmlns="http://www.w3.org/2000/svg" viewBox="0 0 1000 1000"><defs><style>.cls-1{fill:#242234;}.cls-2{fill:#1e73dc;}.cls-3{fill:#1f2bdb;}</style></defs><circle class="cls-1" cx="500" cy="500" r="500"/><path class="cls-2" d="M635.12,678.69H513.47a15,15,0,0,1-15-15V424.21a15,15,0,0,1,15-15h20a15,15,0,0,1,15,15V613.69a15,15,0,0,0,15,15H635c.92,0,18.79-.52,35.57-9.34,20.42-10.73,30.34-29.19,30.34-56.45s-9.92-45.72-30.34-56.45c-16.78-8.82-34.65-9.32-35.57-9.34H593.71a15,15,0,0,1-15-15v-20a15,15,0,0,1,15-15H614a53.72,53.72,0,0,0,21.52-5.78C642.6,437.5,652,430,652,409.21c0-16.5-5.43-26.58-17.63-32.68a54,54,0,0,0-20.27-5.22H428.29c-.25,0-34.32.44-67,17.27-40.91,21-61.65,58.53-61.65,111.42s20.74,90.38,61.65,111.42C394,628.25,428,628.69,428.38,628.69h25.09a15,15,0,0,1,15,15v20a15,15,0,0,1-15,15H428.29c-1.81,0-44.82-.25-88-21.85C298.9,636.16,249.6,592.16,249.6,500s49.3-136.16,90.66-156.84c43.21-21.6,86.22-21.85,88-21.85H614.14a103.19,103.19,0,0,1,42.63,10.5C686,346.41,702,373.89,702,409.21c0,14.5-2.71,27.69-7.93,39.2a15.07,15.07,0,0,0,5.1,18.43c11,7.77,26.93,20.12,33.32,29.7,12.2,18.3,18.38,40.63,18.38,66.36s-6.18,48.06-18.38,66.36c-10,15-23.71,26.88-40.83,35.44A136.93,136.93,0,0,1,635.12,678.69Z"/><path class="cls-3" d="M224.62,678.7a25,25,0,0,1-21-11.43l-99.38-153.7a25,25,0,0,1,0-27.14l99.38-153.7a25,25,0,1,1,42,27.15L155,500l90.6,140.12a25,25,0,0,1-21,38.58Z"/><path class="cls-3" d="M775.89,678.7a25,25,0,0,1-21-38.58L845.52,500l-90.6-140.12a25,25,0,0,1,42-27.15l99.38,153.7a25,25,0,0,1,0,27.14l-99.38,153.7A25,25,0,0,1,775.89,678.7Z"/></svg>