<svg xmlns="http://www.w3.org/2000/svg" xmlns:xlink="http://www.w3.org/1999/xlink" viewBox="0 0 783.33 783.33"><defs><style>.cls-1,.cls-7,.cls-9{fill:none;}.cls-2,.cls-8{fill:#00ff85;}.cls-3{fill:#0b1120;}.cls-4{fill:#ff8500;}.cls-5{clip-path:url(#clip-path);}.cls-6{clip-path:url(#clip-path-2);}.cls-7{stroke:#ff8500;stroke-width:20px;}.cls-7,.cls-8,.cls-9{stroke-miterlimit:10;}.cls-8,.cls-9{stroke:#0b1120;}.cls-8{stroke-width:15px;}.cls-9{stroke-linecap:round;stroke-width:30px;}</style><clipPath id="clip-path"><rect class="cls-1" x="442.06" y="602.96" width="77.42" height="142.68"/></clipPath><clipPath id="clip-path-2"><rect class="cls-1" x="263.18" y="602.96" width="77.42" height="142.68"/></clipPath></defs><g id="Layer_3" data-name="Layer 3"><g id="Arm"><path class="cls-2" d="M99.6,530.29C75.38,581.43,78.26,611.7,111,614.49c17.3,1.48,28.47-16.54,27.33-33.8,1.76.81,3.28.92,6.44.14,6-1.47,6.36-9.33,2.28-18.38-3.28-7.27-6-14.35-3.7-23.86Z"/><path class="cls-3" d="M194.94,422.74c-34.74,50.57-51.58,115.85-51.58,115.85l-43.76-8.3S136.3,408,156.1,388C188.21,355.53,220.77,392.08,194.94,422.74Z"/><path class="cls-4" d="M143.23,539.13a197.07,197.07,0,0,1-43.63-8.84,35.19,35.19,0,0,1,3.4-11.07,261.38,261.38,0,0,1,43.44,9A32.06,32.06,0,0,1,143.23,539.13Z"/></g><g id="Arm-2" data-name="Arm"><path class="cls-2" d="M690.45,274.41c31.22-47.19,32.66-77.56.64-85-16.92-3.92-30.53,12.34-31.85,29.58-1.63-1-3.12-1.37-6.35-1.05-6.13.61-7.62,8.33-4.87,17.87,2.22,7.66,3.92,15.06.29,24.15Z"/><path class="cls-3" d="M580.81,367.35C622.37,322.22,648.31,260,648.31,260l42.14,14.42s-53.68,115.83-76.11,132.84C577.94,434.84,550.9,394,580.81,367.35Z"/><path class="cls-4" d="M648.51,259.47a196.31,196.31,0,0,1,41.93,14.94,34.88,34.88,0,0,1-4.93,10.47,262.29,262.29,0,0,1-41.72-15.11A32,32,0,0,1,648.51,259.47Z"/></g><g id="legs"><g class="cls-5"><g id="Leg"><path class="cls-2" d="M517,743.89c5.92-9.89.75-22.73-11.48-24.67a174.77,174.77,0,0,0-.24-17.86l-63,.21c-.63,9.26,0,29.12.88,40.6C462.52,746.41,485.25,746.48,517,743.89Z"/><path class="cls-3" d="M442.06,634.66c.16,30.67.24,64.84.24,64.84l63,.34s-.65-35-2.42-67C500.78,594.83,441.83,590.55,442.06,634.66Z"/><path class="cls-4" d="M442.32,701.57c21,4.65,46.12,3.64,63-.21a60.83,60.83,0,0,0-.23-11.55c-18,2.18-43.77,2.1-62.81.49A75.5,75.5,0,0,0,442.32,701.57Z"/></g></g></g><g id="legs-2" data-name="legs"><g class="cls-6"><g id="Leg-2" data-name="Leg"><path class="cls-2" d="M265.64,743.89c-5.92-9.89-.75-22.73,11.48-24.67a174.77,174.77,0,0,1,.24-17.86l63,.21c.63,9.26,0,29.12-.88,40.6C320.14,746.41,297.42,746.48,265.64,743.89Z"/><path class="cls-3" d="M340.61,634.66c-.16,30.67-.24,64.84-.24,64.84l-63,.34s.64-35,2.42-67C281.89,594.83,340.84,590.55,340.61,634.66Z"/><path class="cls-4" d="M340.35,701.57c-21,4.65-46.13,3.64-63-.21a61.64,61.64,0,0,1,.22-11.55c18,2.18,43.77,2.1,62.81.49A74.22,74.22,0,0,1,340.35,701.57Z"/></g></g></g><g id="Face"><path class="cls-7" d="M444.56,169.77C440,106.44,460.61,52,460.61,52"/><path class="cls-4" d="M495.78,65.29a37.6,37.6,0,1,0-48.46,21.88A37.6,37.6,0,0,0,495.78,65.29Z"/><path class="cls-7" d="M294.29,180.48c-4.51-63.33-32.6-114.3-32.6-114.3"/><path class="cls-4" d="M294.62,48a37.6,37.6,0,1,0-14.78,51.08A37.6,37.6,0,0,0,294.62,48Z"/><rect class="cls-8" x="159.62" y="174.56" width="451.73" height="451.73" rx="36.54" transform="translate(-27.49 28.42) rotate(-4.08)"/><path class="cls-3" d="M324.64,220.09,340.56,219a7.25,7.25,0,0,0-1-14.47l-15.92,1.13a7.25,7.25,0,1,0,1,14.47Z"/><path class="cls-3" d="M404.21,214.42l15.92-1.13a7.25,7.25,0,0,0-1-14.47L403.18,200a7.25,7.25,0,1,0,1,14.47Z"/><path class="cls-3" d="M438.31,244a7.27,7.27,0,0,0,6.72-7.75l-1.14-15.91a7.25,7.25,0,1,0-14.46,1l.56,8,.57,8A7.25,7.25,0,0,0,438.31,244Z"/><circle class="cls-3" cx="440.06" cy="268.57" r="7.25"/><path class="cls-3" d="M371.44,305.45l1.14,15.92a7.25,7.25,0,0,0,14.46-1l-1.13-15.92a7.25,7.25,0,1,0-14.47,1Z"/><path class="cls-3" d="M403.27,303.18a7.25,7.25,0,0,0,14.47-1l-1.14-15.91a7.25,7.25,0,0,0-7.75-6.72l-15.91,1.14a7.25,7.25,0,1,0,1,14.46l8.68-.62Z"/><path class="cls-3" d="M316.67,332.62a7.26,7.26,0,0,0,6.72-7.75l-1.76-24.59L339,299l4,56.42a7.25,7.25,0,1,0,14.46-1l-4-56.42,8.68-.62a7.25,7.25,0,0,0-1-14.47l-8.68.62-.62-8.68a7.26,7.26,0,0,0-7.75-6.72l-8.68.62-1.23-17.36,17.36-1.23.62,8.68a7.25,7.25,0,0,0,14.46-1l-1.75-24.59L382.2,232l1.75,24.6a7.25,7.25,0,0,0,7.75,6.71L423.53,261a7.25,7.25,0,0,0-1-14.47l-24.6,1.75-1.75-24.59A7.25,7.25,0,0,0,388.4,217l-8.68.62-.62-8.68a7.25,7.25,0,1,0-14.46,1l.62,8.68-8.69.62a7.24,7.24,0,0,0-6.71,7.75l.62,8.68L310,238.59a7.24,7.24,0,0,0-6.72,7.74l5.67,79.57A7.25,7.25,0,0,0,316.67,332.62Z"/><path class="cls-3" d="M444,323.55a7.26,7.26,0,0,0,6.72-7.75l-1.14-15.92a7.25,7.25,0,0,0-14.46,1l1.13,15.91A7.27,7.27,0,0,0,444,323.55Z"/><circle class="cls-3" cx="189.98" cy="350.38" r="7.25"/><path class="cls-3" d="M191.82,478.2a7.25,7.25,0,1,0,14.46-1l-2.88-40.51,8.68-.62a7.26,7.26,0,0,0,6.72-7.75h0l-.57-8,0-.73,8.68-.61a7.25,7.25,0,0,0-1-14.47l-24.6,1.75L200,388.92l24.59-1.75a7.27,7.27,0,0,0,6.72-7.75l-1.7-23.87-.06-.73,33.28-2.37.62,8.68a7.25,7.25,0,1,0,14.46-1l-.61-8.68,8.68-.62a7.25,7.25,0,0,0-1-14.46l-63.66,4.53a7.26,7.26,0,0,0-6.72,7.75l.62,8.68-8.68.62a7.27,7.27,0,0,0-6.72,7.75l.62,8.68-8.68.62a7.26,7.26,0,0,0-6.72,7.75Z"/><circle class="cls-3" cx="396.86" cy="335.63" r="7.25"/><circle class="cls-3" cx="428.69" cy="333.36" r="7.25"/><path class="cls-3" d="M516,334.41,517.76,359a7.25,7.25,0,0,1-14.47,1l-.62-8.68L494,352a7.25,7.25,0,0,1-7.75-6.72l-.62-8.68-8.68.62a7.25,7.25,0,1,1-1-14.46l63.66-4.54a7.25,7.25,0,0,1,1,14.47Z"/><circle class="cls-3" cx="573.04" cy="339.07" r="7.25" transform="translate(-22.65 41.6) rotate(-4.08)"/><circle class="cls-3" cx="287.73" cy="375.4" r="7.25"/><circle class="cls-3" cx="542.35" cy="357.25" r="7.25" transform="translate(-67.62 134.29) rotate(-13.29)"/><path class="cls-3" d="M573.13,442.3l-8.68.62a7.26,7.26,0,0,1-7.75-6.72l-.62-8.68-8.68.62a7.25,7.25,0,1,1-1-14.47l24.6-1.75-1.24-17.36-8.68.62a7.25,7.25,0,1,1-1-14.47l15.91-1.13a7.24,7.24,0,0,1,7.75,6.71l6.81,95.49a7.27,7.27,0,0,1-6.72,7.75l-31.83,2.26a7.25,7.25,0,1,1-1-14.46l24.59-1.76Z"/><circle class="cls-3" cx="386.61" cy="416.33" r="7.25"/><path class="cls-3" d="M450.46,516.48l-8.68.61a7.27,7.27,0,0,0-6.72,7.75l1.14,15.92a7.26,7.26,0,0,0,7.75,6.72l15.91-1.14a7.26,7.26,0,0,0,6.72-7.75l-.62-8.68,17.36-1.24.62,8.69a7.25,7.25,0,1,0,14.46-1l-.61-8.68,17.36-1.23,2.37,33.27-24.6,1.75a7.25,7.25,0,0,0,1,14.47h0l47.74-3.4h0a7.25,7.25,0,0,0-1-14.47l-8.68.62-2.38-33.27,8.68-.62A7.25,7.25,0,0,0,545,517l-1.13-15.92a7.25,7.25,0,0,0-7.75-6.71l-8.68.61-2.37-33.27,8.68-.62a7.25,7.25,0,0,0-1-14.47l-56.43,4-1.23-17.37,8.68-.61a7.27,7.27,0,0,0,6.72-7.75l-.62-8.68L507.21,415l.62,8.68a7.25,7.25,0,1,0,14.46-1l-1.75-24.6,8.68-.61a7.25,7.25,0,0,0-1-14.47l-47.74,3.4a7.26,7.26,0,0,0-6.72,7.75l.62,8.68L457,404.05l-1.24-17.36,8.68-.62a7.26,7.26,0,0,0,6.72-7.75l-.62-8.68,8.68-.62a7.25,7.25,0,0,0-1-14.47l-8.68.62-.62-8.68a7.26,7.26,0,0,0-7.75-6.72l-15.91,1.14a7.25,7.25,0,1,0,1,14.47l8.68-.62,1.24,17.36-8.68.62a7.24,7.24,0,0,0-6.72,7.75l.62,8.68-33.28,2.37-1.23-17.36,8.68-.62a7.25,7.25,0,0,0,6.71-7.75l-1.13-15.92a7.25,7.25,0,0,0-14.47,1l.62,8.68-8.68.61a7.27,7.27,0,0,0-6.72,7.75l.62,8.68-17.36,1.24-.62-8.68a7.25,7.25,0,1,0-14.47,1l1.14,15.92a7.24,7.24,0,0,0,7.75,6.71l24.59-1.75.62,8.68a7.25,7.25,0,0,0,7.75,6.72l8.68-.62,1.24,17.36-8.68.62a7.24,7.24,0,0,0-6.72,7.75l.62,8.68-8.68.62a7.24,7.24,0,0,0-6.72,7.75l1.13,15.91a7.25,7.25,0,0,0,14.47-1l-.62-8.68,8.68-.62a7.24,7.24,0,0,0,6.72-7.75l-.62-8.68,24.6-1.75a7.25,7.25,0,0,0,6.71-7.75l-.61-8.68,17.36-1.24,1.23,17.36-8.68.62a7.27,7.27,0,0,0-6.72,7.75l.62,8.68-24.59,1.75a7.26,7.26,0,0,0-6.72,7.75l1.14,15.92a7.25,7.25,0,0,0,14.46-1l-.62-8.68L447,467.29Zm60.15-53.73,3.51,49.19-49.19,3.5-3.51-49.18Z"/><path class="cls-3" d="M244,435.22a7.26,7.26,0,0,0-6.72,7.75l.62,8.68-8.68.62a7.25,7.25,0,0,0-6.72,7.75l1.14,15.91a7.25,7.25,0,1,0,14.46-1l-.62-8.68L254.85,465l.62,8.68a7.25,7.25,0,0,0,7.75,6.72L311,477a7.24,7.24,0,0,0,6.72-7.75l-.62-8.68,8.68-.62a7.24,7.24,0,0,0,6.72-7.75l-.62-8.68,8.68-.62a7.24,7.24,0,0,0,6.72-7.75l-.62-8.68,8.68-.61a7.25,7.25,0,0,0-1-14.47l-8.68.62-.62-8.68a7.24,7.24,0,0,0-7.75-6.72l-8.68.62-1.23-17.36,8.68-.62a7.25,7.25,0,0,0-1-14.47L319,365.9a7.25,7.25,0,0,0-6.72,7.74l.62,8.69-8.68.61a7.25,7.25,0,1,0,1,14.47l8.68-.62.62,8.68a7.25,7.25,0,0,0,7.75,6.72l8.68-.62,1.24,17.36-8.68.62a7.26,7.26,0,0,0-6.72,7.75l.62,8.68-8.68.62a7.25,7.25,0,0,0-6.72,7.75l.62,8.68-33.28,2.37L268.19,448l24.59-1.75a7.25,7.25,0,0,0-1-14.47l-8.68.62-1.24-17.36,8.68-.62a7.25,7.25,0,0,0-1-14.47l-8.68.62-.62-8.68a7.26,7.26,0,0,0-7.75-6.72l-31.82,2.27a7.25,7.25,0,1,0,1,14.47l8.68-.62.62,8.68a7.26,7.26,0,0,0,7.75,6.72l8.68-.62,1.23,17.36Z"/><path class="cls-3" d="M351.26,491.56,350,474.2l8.69-.62a7.25,7.25,0,0,0-1-14.47l-15.91,1.13A7.27,7.27,0,0,0,335,468l.62,8.68-8.68.62a7.25,7.25,0,1,0,1,14.47l8.68-.62,1.24,17.36-8.68.62a7.25,7.25,0,0,0-6.72,7.75l3.4,47.74a7.25,7.25,0,0,0,14.47-1l-2.89-40.51,8.68-.62a7.24,7.24,0,0,0,6.72-7.75l-.62-8.68,17.36-1.23,1.76,24.59a7.25,7.25,0,1,0,14.46-1l-1.75-24.59,8.68-.62a7.25,7.25,0,0,0-1-14.47Z"/><circle class="cls-3" cx="487.77" cy="489.1" r="7.25"/><path class="cls-3" d="M363.35,538.68a7.24,7.24,0,0,0-6.72,7.75l1.13,15.91a7.25,7.25,0,0,0,14.47-1l-1.14-15.91A7.24,7.24,0,0,0,363.35,538.68Z"/><path class="cls-3" d="M586.14,522.8l-15.92,1.13a7.25,7.25,0,0,0,1,14.47l8.68-.62.61,8.68a7.25,7.25,0,0,0,14.47-1h0l-1.13-15.91h0A7.26,7.26,0,0,0,586.14,522.8Z"/><path class="cls-3" d="M428.13,550.06l-8.68.62-.61-8.69a7.25,7.25,0,0,0-7.75-6.71l-15.92,1.13a7.25,7.25,0,1,0,1,14.47l8.68-.62,1.24,17.36-8.68.62a7.26,7.26,0,0,0-6.72,7.75l1.14,15.91a7.25,7.25,0,1,0,14.46-1l-.61-8.68,8.68-.62h0a7.24,7.24,0,0,0,6.71-7.75l-.61-8.68,8.68-.62h0a7.25,7.25,0,1,0-1-14.46Z"/><circle class="cls-3" cx="555.96" cy="548.22" r="7.25" transform="translate(-138.24 190.85) rotate(-17.36)"/><path class="cls-3" d="M366.75,586.42l-8.68.62-.62-8.68a7.25,7.25,0,1,0-14.47,1l.62,8.68-8.68.62a7.25,7.25,0,1,0,1,14.47h0l31.83-2.27h0a7.25,7.25,0,0,0-1-14.47Z"/><circle class="cls-3" cx="430.92" cy="589.12" r="7.25" transform="translate(-40.79 32.13) rotate(-4.08)"/><circle class="cls-3" cx="462.75" cy="586.85" r="7.25" transform="translate(-40.55 34.38) rotate(-4.08)"/><path class="cls-3" d="M589.54,570.54l-8.68.62-.62-8.68h0a7.25,7.25,0,1,0-14.46,1l.61,8.68-8.68.62a7.25,7.25,0,0,0,1,14.47h0L590.57,585h0a7.25,7.25,0,0,0-1-14.47Z"/><path class="cls-3" d="M202.6,325.48l89.12-6.35L285.36,230a22.33,22.33,0,0,0-23.86-20.69l-66.84,4.77A22.32,22.32,0,0,0,174,238l4.76,66.84A22.33,22.33,0,0,0,202.6,325.48Zm-12-79.11a16,16,0,0,1,14.78-17.05l47.74-3.4a16,16,0,0,1,17,14.78l4.54,63.65L211,308.89a16,16,0,0,1-17-14.78Z"/><path class="cls-3" d="M548,188.91l-66.84,4.76a22.33,22.33,0,0,0-20.69,23.87l6.35,89.12,89.12-6.36a22.33,22.33,0,0,0,20.69-23.86l-4.77-66.84A22.32,22.32,0,0,0,548,188.91ZM560,268a16,16,0,0,1-14.78,17.05l-63.65,4.54L477,226a16,16,0,0,1,14.78-17l47.74-3.4a16,16,0,0,1,17.05,14.78Z"/><rect class="cls-3" x="208.12" y="243.47" width="47.86" height="47.86" rx="15.95" transform="translate(-18.42 17.17) rotate(-4.08)"/><rect class="cls-3" x="494.57" y="223.06" width="47.86" height="47.86" rx="15.95" transform="translate(-16.25 37.49) rotate(-4.08)"/><path class="cls-3" d="M194.38,524.4l4.77,66.84A22.32,22.32,0,0,0,223,611.93l66.84-4.76a22.33,22.33,0,0,0,20.69-23.87l-6.35-89.12-89.11,6.36A22.34,22.34,0,0,0,194.38,524.4Zm95-13.17L294,574.89a16,16,0,0,1-14.78,17.05l-47.74,3.4a16,16,0,0,1-17.05-14.78L211,532.82a16,16,0,0,1,14.78-17.05Z"/><rect class="cls-3" x="228.53" y="529.92" width="47.86" height="47.86" rx="15.95" transform="translate(-38.74 19.35) rotate(-4.08)"/><path class="cls-2" d="M363.64,326.51a61.17,61.17,0,0,1-32-14.47C320.28,302,306.16,297,291.76,298c-17.54,1.26-33.39,11.37-43.47,27.77-8.3,13.48-12.19,30.39-11,47.61s7.49,33.4,17.61,45.57a59.61,59.61,0,0,0,26.23,18.55,6.46,6.46,0,0,1,2.87,10.1l-.06.09a46.06,46.06,0,0,0-9.16,33.67c1.59,13.09,8.94,24.71,19.54,32.53,27.58,20.35,64.34,30.49,101.2,27.86,37.59-2.68,73.18-18.48,97.65-43.34a46.43,46.43,0,0,0-.53-65.59l-.08-.08A6.47,6.47,0,0,1,494,422.32a59.58,59.58,0,0,0,23.34-22.08c8.3-13.49,12.19-30.39,11-47.61s-7.48-33.4-17.6-45.57c-12.31-14.81-29.43-22.58-47-21.33-14.41,1-27.68,8-37.54,19.6a60.14,60.14,0,0,1-27.93,18.34A79.12,79.12,0,0,1,363.64,326.51Z"/><g id="Eyes"><ellipse class="cls-3" cx="301.49" cy="368.79" rx="29.66" ry="41.32" transform="translate(-25.46 22.37) rotate(-4.08)"/><ellipse class="cls-3" cx="464.14" cy="357.2" rx="29.66" ry="41.32" transform="translate(-24.22 33.9) rotate(-4.08)"/></g><path class="cls-9" d="M324.26,475.32s29.61,19.17,67.73,16.45S456.79,467,456.79,467"/></g></g></svg>