<svg xmlns="http://www.w3.org/2000/svg" version="1.1" xmlns:xlink="http://www.w3.org/1999/xlink" width="783.33" height="783.33"><svg xmlns="http://www.w3.org/2000/svg" version="1.1" xmlns:xlink="http://www.w3.org/1999/xlink" width="783.33" height="783.33"><svg xmlns="http://www.w3.org/2000/svg" viewBox="0 0 783.33 783.33"><defs><style>.cls-1{fill:#00ff85;}.cls-2{fill:#0b1120;}.cls-3{fill:none;stroke:#0b1120;stroke-linecap:round;stroke-miterlimit:10;stroke-width:30px;}</style></defs><g id="Layer_6" data-name="Layer 6"><g id="Background"><rect class="cls-1" x="15" y="15" width="753.33" height="753.33" rx="85"></rect><path class="cls-2" d="M683.33,30a70.08,70.08,0,0,1,70,70V683.33a70.08,70.08,0,0,1-70,70H100a70.08,70.08,0,0,1-70-70V100a70.08,70.08,0,0,1,70-70H683.33m0-30H100A100,100,0,0,0,0,100V683.33a100,100,0,0,0,100,100H683.33a100,100,0,0,0,100-100V100a100,100,0,0,0-100-100Z"></path></g><g id="QR"><path class="cls-2" d="M661.7,62.13H483.21a59.5,59.5,0,0,0-59.5,59.5v238h238a59.5,59.5,0,0,0,59.5-59.5V121.63A59.5,59.5,0,0,0,661.7,62.13Zm17,212.5a42.5,42.5,0,0,1-42.5,42.5h-170v-170a42.5,42.5,0,0,1,42.5-42.5H636.2a42.5,42.5,0,0,1,42.5,42.5Z"></path><rect class="cls-2" x="508.71" y="147.13" width="127.5" height="127.5" rx="42.5"></rect><path class="cls-2" d="M122.44,62.94H300.93a59.5,59.5,0,0,1,59.5,59.5v238h-238a59.5,59.5,0,0,1-59.5-59.5V122.44A59.5,59.5,0,0,1,122.44,62.94Zm-17,212.49a42.5,42.5,0,0,0,42.5,42.5h170v-170a42.5,42.5,0,0,0-42.5-42.5H147.94a42.5,42.5,0,0,0-42.5,42.5Z"></path><rect class="cls-2" x="147.94" y="147.94" width="127.5" height="127.5" rx="42.5"></rect><path class="cls-2" d="M122.6,719.42H301.1a59.49,59.49,0,0,0,59.49-59.5v-238h-238a59.5,59.5,0,0,0-59.5,59.5V659.92A59.5,59.5,0,0,0,122.6,719.42Zm-17-212.49a42.5,42.5,0,0,1,42.5-42.5h170v170a42.49,42.49,0,0,1-42.5,42.49H148.1a42.49,42.49,0,0,1-42.5-42.49Z"></path><rect class="cls-2" x="148.1" y="506.93" width="127.5" height="127.5" rx="42.5"></rect><path class="cls-2" d="M607.1,449A21.13,21.13,0,0,0,586,470.1v46.48a21.13,21.13,0,0,0,42.26,0V470.1A21.13,21.13,0,0,0,607.1,449Z"></path><path class="cls-2" d="M700.07,537.71H653.59a21.13,21.13,0,0,0,0,42.26h25.35v25.36a21.13,21.13,0,0,0,42.26,0h0V558.84h0A21.13,21.13,0,0,0,700.07,537.71Z"></path><path class="cls-2" d="M521.73,584.2H496.38V558.84a21.13,21.13,0,0,0-21.13-21.13H428.76a21.13,21.13,0,1,0,0,42.26h25.36v50.71H428.76a21.13,21.13,0,0,0-21.13,21.13v46.48a21.13,21.13,0,0,0,42.26,0V672.94h25.36a21.13,21.13,0,0,0,21.13-21.13V626.45h25.35a21.13,21.13,0,1,0,0-42.25Z"></path><circle class="cls-2" cx="607.1" cy="605.33" r="21.13" transform="translate(-122.83 155.68) rotate(-13.28)"></circle><path class="cls-2" d="M700.07,677.16H674.72V651.81h0a21.13,21.13,0,1,0-42.25,0v25.35H607.1a21.13,21.13,0,0,0,0,42.26h93a21.13,21.13,0,0,0,0-42.26Z"></path><circle class="cls-2" cx="698.89" cy="427.84" r="21.13" transform="translate(-79.6 172.02) rotate(-13.28)"></circle></g><g id="Face"><path class="cls-1" d="M361.08,252.19A113.08,113.08,0,0,1,304,221.26c-19.73-20-45.13-31.18-71.85-31.18-32.56,0-63.16,16.59-83.93,45.54-17.08,23.8-26.5,54.51-26.5,86.46s9.42,62.66,26.5,86.47c12.39,17.27,28.28,30.13,46,37.7a12,12,0,0,1,4,19l-.13.15a85.28,85.28,0,0,0-21.34,61c1.21,24.36,13.25,46.8,31.8,62.64,48.24,41.19,114.78,64.75,183.19,64.75,69.75,0,137.54-24.49,186-67.18a85.94,85.94,0,0,0,7.66-121.17l-.14-.16c-5.43-6.13-3.56-15.81,4-19,17.71-7.57,33.6-20.43,46-37.7,17.09-23.81,26.5-54.51,26.5-86.46s-9.41-62.66-26.5-86.46c-20.78-28.95-51.37-45.55-83.93-45.55-26.75,0-52.17,11.2-71.91,31.24a111.21,111.21,0,0,1-54,30.18A146.24,146.24,0,0,1,361.08,252.19Z"></path><g id="Eyes"><ellipse class="cls-2" cx="240.75" cy="322.09" rx="54.9" ry="76.48"></ellipse><ellipse class="cls-2" cx="542.59" cy="322.09" rx="54.9" ry="76.48"></ellipse></g><path class="cls-3" d="M268.78,521.77s52.14,39.29,122.89,39.29,122.89-37.14,122.89-37.14"></path></g></g></svg></svg><style>@media (prefers-color-scheme: light) { :root { filter: none; } }
@media (prefers-color-scheme: dark) { :root { filter: none; } }
</style></svg>